<svg width="40" height="40" viewBox="0 0 40 40" fill="none" xmlns="http://www.w3.org/2000/svg">
<g clip-path="url(#clip0_646_86)">
<path d="M14 0C12.9391 0 11.9217 0.421427 11.1716 1.17157C10.4214 1.92172 10 2.93913 10 4H28C29.0609 4 30.0783 4.42143 30.8284 5.17157C31.5786 5.92172 32 6.93913 32 8V32C33.0609 32 34.0783 31.5786 34.8284 30.8284C35.5786 30.0783 36 29.0609 36 28V4C36 2.93913 35.5786 1.92172 34.8284 1.17157C34.0783 0.421427 33.0609 0 32 0L14 0Z" fill="black"/>
<path d="M26 40C27.0609 40 28.0783 39.5786 28.8284 38.8284C29.5786 38.0783 30 37.0609 30 36V10C30 8.93913 29.5786 7.92172 28.8284 7.17157C28.0783 6.42143 27.0609 6 26 6H8C6.93913 6 5.92172 6.42143 5.17157 7.17157C4.42143 7.92172 4 8.93913 4 10V36C4 37.0609 4.42143 38.0783 5.17157 38.8284C5.92172 39.5786 6.93913 40 8 40H26ZM18 10H26V20H18V10ZM8 10H16V12H8V10ZM8 14H16V16H8V14ZM8 18H16V20H8V18ZM8 22H26V24H8V22ZM8 26H26V28H8V26ZM8 30H26V32H8V30Z" fill="black"/>
</g>
<defs>
<clipPath id="clip0_646_86">
<rect width="40" height="40" fill="white"/>
</clipPath>
</defs>
</svg>
