<svg aria-hidden="true" style="position: absolute; width: 0; height: 0; overflow: hidden;" version="1.1" xmlns="http://www.w3.org/2000/svg" xmlns:xlink="http://www.w3.org/1999/xlink">
<defs>
<symbol id="icon-home" viewBox="0 0 32 32">
<path d="M13.333 25.333v-6.667h5.333v6.667c0 0.733 0.6 1.333 1.333 1.333h4c0.733 0 1.333-0.6 1.333-1.333v-9.333h2.267c0.613 0 0.907-0.76 0.44-1.16l-11.147-10.040c-0.507-0.453-1.28-0.453-1.787 0l-11.147 10.040c-0.453 0.4-0.173 1.16 0.44 1.16h2.267v9.333c0 0.733 0.6 1.333 1.333 1.333h4c0.733 0 1.333-0.6 1.333-1.333z"></path>
</symbol>
<symbol id="icon-shopping-bag" viewBox="0 0 32 32">
<path d="M8 29.333c-0.733 0-1.361-0.261-1.883-0.783s-0.784-1.151-0.784-1.884v-16c0-0.733 0.261-1.361 0.784-1.883s1.149-0.784 1.883-0.784h2.667c0-1.467 0.522-2.722 1.567-3.767s2.3-1.567 3.767-1.567c1.467 0 2.722 0.522 3.767 1.567s1.567 2.3 1.567 3.767h2.667c0.733 0 1.361 0.261 1.884 0.784s0.783 1.149 0.783 1.883v16c0 0.733-0.261 1.361-0.783 1.884s-1.151 0.783-1.884 0.783h-16zM12 14.667c0.378 0 0.695-0.128 0.951-0.384s0.383-0.572 0.383-0.949v-2.667h-2.667v2.667c0 0.378 0.128 0.694 0.384 0.949s0.572 0.384 0.949 0.384zM13.333 8h5.333c0-0.733-0.261-1.361-0.783-1.883s-1.151-0.784-1.884-0.784c-0.733 0-1.361 0.261-1.883 0.784s-0.784 1.149-0.784 1.883zM20 14.667c0.378 0 0.695-0.128 0.951-0.384s0.383-0.572 0.383-0.949v-2.667h-2.667v2.667c0 0.378 0.128 0.694 0.384 0.949s0.572 0.384 0.949 0.384z"></path>
</symbol>
<symbol id="icon-account" viewBox="0 0 32 32">
<path d="M16 2.667c-1.751 0-3.485 0.345-5.102 1.015s-3.088 1.652-4.326 2.89c-2.5 2.5-3.905 5.892-3.905 9.428s1.405 6.928 3.905 9.428c1.238 1.238 2.708 2.22 4.326 2.89s3.351 1.015 5.102 1.015c3.536 0 6.928-1.405 9.428-3.905s3.905-5.892 3.905-9.428c0-1.751-0.345-3.485-1.015-5.102s-1.652-3.088-2.89-4.326c-1.238-1.238-2.708-2.22-4.326-2.89s-3.352-1.015-5.102-1.015zM9.427 24.373c0.573-1.2 4.067-2.373 6.573-2.373s6 1.173 6.573 2.373c-1.868 1.488-4.186 2.297-6.573 2.293-2.48 0-4.76-0.853-6.573-2.293zM24.48 22.44c-1.907-2.32-6.533-3.107-8.48-3.107s-6.573 0.787-8.48 3.107c-1.418-1.847-2.187-4.111-2.187-6.44 0-5.88 4.787-10.667 10.667-10.667s10.667 4.787 10.667 10.667c0 2.427-0.827 4.667-2.187 6.44zM16 8c-2.587 0-4.667 2.080-4.667 4.667s2.080 4.667 4.667 4.667c2.587 0 4.667-2.080 4.667-4.667s-2.080-4.667-4.667-4.667zM16 14.667c-0.53 0-1.039-0.211-1.414-0.586s-0.586-0.884-0.586-1.414 0.211-1.039 0.586-1.414c0.375-0.375 0.884-0.586 1.414-0.586s1.039 0.211 1.414 0.586c0.375 0.375 0.586 0.884 0.586 1.414s-0.211 1.039-0.586 1.414c-0.375 0.375-0.884 0.586-1.414 0.586z"></path>
</symbol>
<symbol id="icon-news" viewBox="0 0 32 32">
<path d="M11.2 0c-0.849 0-1.663 0.337-2.263 0.937s-0.937 1.414-0.937 2.263h14.4c0.849 0 1.663 0.337 2.263 0.937s0.937 1.414 0.937 2.263v19.2c0.849 0 1.663-0.337 2.263-0.937s0.937-1.414 0.937-2.263v-19.2c0-0.849-0.337-1.663-0.937-2.263s-1.414-0.937-2.263-0.937h-14.4z"></path>
<path d="M20.8 32c0.849 0 1.663-0.337 2.263-0.937s0.937-1.414 0.937-2.263v-20.8c0-0.849-0.337-1.663-0.937-2.263s-1.414-0.937-2.263-0.937h-14.4c-0.849 0-1.663 0.337-2.263 0.937s-0.937 1.414-0.937 2.263v20.8c0 0.849 0.337 1.663 0.937 2.263s1.414 0.937 2.263 0.937h14.4zM14.4 8h6.4v8h-6.4v-8zM6.4 8h6.4v1.6h-6.4v-1.6zM6.4 11.2h6.4v1.6h-6.4v-1.6zM6.4 14.4h6.4v1.6h-6.4v-1.6zM6.4 17.6h14.4v1.6h-14.4v-1.6zM6.4 20.8h14.4v1.6h-14.4v-1.6zM6.4 24h14.4v1.6h-14.4v-1.6z"></path>
</symbol>
<symbol id="icon-reviews" viewBox="0 0 32 32">
<path d="M26.667 2.667h-21.333c-1.467 0-2.653 1.2-2.653 2.667l-0.013 24 5.333-5.333h18.667c1.467 0 2.667-1.2 2.667-2.667v-16c0-1.467-1.2-2.667-2.667-2.667zM24 18.667h-16v-2.667h16v2.667zM24 14.667h-16v-2.667h16v2.667zM24 10.667h-16v-2.667h16v2.667z"></path>
</symbol>
</defs>
</svg>